# xmcd
#
# Track frame offsets:
#	150
#	28132
#	53202
#	72822
#	89257
#	118880
#	149185
#	157609
#	184017
#	202600
#
# Disc length: 3082 seconds
#
# Revision: 4
# Processed by: cddbd v1.5.2PL0 Copyright (c) Steve Scherf et al.
# Submitted via: audiograbber 1.83.01
#
DISCID=860c080a
DTITLE=Lester Quitzau - A Big Love
DYEAR=1996
DGENRE=Blues
TTITLE0=Feel The Way I Do
TTITLE1=Bliss
TTITLE2=These Days
TTITLE3=A Big Love
TTITLE4=Expectations
TTITLE5=Going Downtown
TTITLE6=Joe's Song
TTITLE7=Joe Six Pack
TTITLE8=Falling
TTITLE9=A Big Love - Reprise
EXTD=YEAR: 1996
EXTT0=
EXTT1=
EXTT2=
EXTT3=
EXTT4=
EXTT5=
EXTT6=
EXTT7=
EXTT8=
EXTT9=
PLAYORDER=
